<?xml version="1.0" encoding="UTF-8"?>
<svg id="Layer_1" data-name="Layer 1" xmlns="http://www.w3.org/2000/svg" viewBox="0 0 1080 1080">
  <defs>
    <style>
      .cls-1 {
        fill: #2f3933;
      }

      .cls-2 {
        fill: #14361e;
      }

      .cls-3 {
        fill: #1a3f24;
      }

      .cls-4 {
        fill: #ecd731;
      }

      .cls-5 {
        fill: #183d21;
      }

      .cls-6 {
        fill: #193b24;
      }

      .cls-7 {
        fill: #f6d30c;
      }

      .cls-8 {
        fill: #194026;
      }

      .cls-9 {
        fill: #163720;
      }

      .cls-10 {
        fill: #193e25;
      }

      .cls-11 {
        fill: #183f26;
      }

      .cls-12 {
        fill: #1e412a;
      }

      .cls-13 {
        fill: #8f9091;
      }

      .cls-14 {
        fill: #16381f;
      }

      .cls-15 {
        fill: #16381e;
      }

      .cls-16 {
        fill: #183c22;
      }

      .cls-17 {
        fill: #7f8082;
      }

      .cls-18 {
        fill: #153a21;
      }

      .cls-19 {
        fill: #f0d521;
      }

      .cls-20 {
        fill: #12351d;
      }

      .cls-21 {
        fill: #183c23;
      }

      .cls-22 {
        fill: #153921;
      }

      .cls-23 {
        fill: #183c24;
      }

      .cls-24 {
        fill: #173820;
      }

      .cls-25 {
        fill: #173e24;
      }

      .cls-26 {
        fill: #173721;
      }

      .cls-27 {
        fill: #cfd0cf;
      }

      .cls-28 {
        fill: #184025;
      }

      .cls-29 {
        fill: #477b4d;
      }

      .cls-30 {
        fill: #efd522;
      }

      .cls-31 {
        fill: #1a3c24;
      }

      .cls-32 {
        fill: #13341e;
      }

      .cls-33 {
        fill: #15341f;
      }

      .cls-34 {
        fill: #1f412b;
      }

      .cls-35 {
        fill: #16391f;
      }

      .cls-36 {
        fill: #183721;
      }

      .cls-37 {
        fill: #ecd535;
      }

      .cls-38 {
        fill: #1a3e26;
      }

      .cls-39 {
        fill: #173d23;
      }

      .cls-40 {
        fill: #14361f;
      }

      .cls-41 {
        fill: #183b21;
      }

      .cls-42 {
        fill: #1a3e25;
      }

      .cls-43 {
        fill: #989d8b;
      }

      .cls-44 {
        fill: #183d25;
      }

      .cls-45 {
        fill: #16351f;
      }

      .cls-46 {
        fill: #183d23;
      }

      .cls-47 {
        fill: #1b3923;
      }
    </style>
  </defs>
  <rect class="cls-29" x="0" y="0" width="1080" height="1080" rx="540" ry="540"/>
  <g>
    <path class="cls-19" d="M896.54,362.85c-10.07-36.29-27.14-70.84-51.18-99.94-13.19-15.97-28.47-30.24-45.48-42.07-65.15-45.32-147.66-48.6-215.64-6.93l-2.6,2.2-142.13-32.75h-4.47l-159.76,43.68-155.5,111.12,353.36,23.08-5.02,26.9c25.86,1.82,40.38,15.55,55.77,32.56,3.91,4.12,7.21,8.96,9.33,14.22-.25,1.33,1.49,3.11,1.97,4.23-.15.8.06,1.45.49,1.97.24,2.26-.43,4.77-.87,7.4l-57.77,357.37c-5.75,3.51-13.8,3.18-21.07,4.06-16.83,2.03-33.18-2.68-48.58-7.74-.82.37-1.76.26-2.29.84-5.25-5.19-9.11-4.9-6,3.39-.12,6.29.38,12.46,1.48,18.52,3.27,2.99,6.19,6.25,8.74,9.78l55.6,61.89c5.93-2.44,10.94-5.56,15.66-9.2,0,0,106.97-63.11,106.98-63.11,4.92-1.59,9.31-4.97,13.78-7.61l91.77-54.05c1.23-7.46,1.62-14.62,1.77-21.72l3.17-38.85c25.76-1.16,49.76-7.87,71.92-18.47,41.94-20.07,75.81-54.12,98.44-94.48,18.75-33.45,28.67-71.16,32.63-109.13,4.09-39.22,6.16-78.73-4.52-117.19ZM572.36,368.64h0s.08,0,.08,0h-.08ZM735.71,611.88l.25-1.44,1.25,1.46-1.5-.02Z"/>
    <path class="cls-17" d="M453.16,564.24c-22.46,15.39-26.77,52.76-10.87,76.83,7.75,11.73,20.55,18.27,34.19,15.15,9.23-2.83,15.52-9.28,21.73-17.07l-12.77,79.86c-21.44,3.33-41.91-4.1-57.65-18.77-36.68-34.17-44.07-97.73-22.86-143.05,16.88-36.06,51.61-60.42,91.34-47.21,7.89,4.52,13.15,14.62,18.69,21.74l-2.85,16.48c-.85,3.86-1.9,10.85-1.98,13.54-.21,12.14-3.15,23.35-5.19,35.71-2.85-10.53-6.29-19.57-13.05-27.45-10.01-11.67-25.83-14.61-38.74-5.77Z"/>
    <polygon class="cls-29" points="662.45 260.49 516.32 241.53 391.91 225.7 441.03 186.18 665.58 239.07 662.45 260.49"/>
    <polygon class="cls-29" points="728.41 473.82 656.83 485.9 665.48 433.09 735.6 428.95 728.41 473.82"/>
    <polygon class="cls-29" points="711.26 583.37 638.39 603.63 644.96 560.71 716.93 546.28 711.26 583.37"/>
    <path class="cls-7" d="M688.8,543.82c-2.88,1.64-16.62,4.58-21.26,3.6,1.44-1.13,1.12-2.51,1.37-3.15s2.07-1.13,3.02-.92c3.9.86,6.27-1.66,9.51-1.96l9.53-.86c5.3-.48,10.45-3.01,15.91-.33-3.77,1.27-6.59,1.19-10.08,2.78l-8,.86Z"/>
    <path class="cls-7" d="M662.42,546.55c.63,1.67-.71,3.11-1.56,3.46-.92.38-3.57.23-3.79-.66-.43-1.78.29-3,.97-3.28.99-.41,3.91-.8,4.39.48Z"/>
    <polygon class="cls-29" points="692.67 700.37 618.99 732.97 626.95 679.65 699.69 655.5 692.67 700.37"/>
    <polygon class="cls-29" points="574.76 823.21 476.92 876.5 486.52 811.94 582.92 770.51 574.76 823.21"/>
    <polygon class="cls-29" points="585.82 750.09 490.83 786.14 500.06 729.14 595.13 691.09 585.82 750.09"/>
    <polygon class="cls-29" points="597.88 674.29 503.38 707.07 510.72 660.76 604.7 631.01 597.88 674.29"/>
    <polygon class="cls-29" points="626.01 492.88 534.01 505.62 543.54 447.05 635.08 435.61 626.01 492.88"/>
    <polygon class="cls-29" points="606.96 614.28 513.34 641.94 522.53 585 614.94 564.11 606.96 614.28"/>
    <polygon class="cls-29" points="617.55 547.62 524.94 567.62 532.14 521.91 623.59 509.12 617.55 547.62"/>
    <polygon class="cls-29" points="609.75 796.01 616.42 751.16 688.36 722.24 684.42 755.35 609.75 796.01"/>
    <path class="cls-29" d="M478.28,567.47c9.36,4.33,14.42,16.59,16.75,26.45,4.23,17.89.9,41.8-13.74,53.74-6.53,5.52-15.81,5.21-23.36.82-19.06-11.09-24.13-37.93-16.32-60.31,5.82-16.67,22.31-29.12,36.68-20.7Z"/>
    <path class="cls-37" d="M407.36,419.49c.71.89.91,1.81.45,2.77-130.15,58.04-137.69,263.11-39.56,353.89,10.96,11.2,24.83,19.35,39.14,26.06.31,1.13-.45,1.41-2.29.84-1.78-1.22-3.46-1.74-6.01-1.79,1.64,5.47,1.47,10.61,1.09,16.1-.76,11.11,7.97,10.17,9.14,17.38l-10.08-9.69-1.37-21.43c-24.33-14.47-44.7-33.75-60.87-56.94-52.61-75.48-56.99-175.1-10.98-254.75,16.73-28.96,39.56-52.85,68.08-70.54l5.74-13.41,7.52,11.5Z"/>
    <path class="cls-43" d="M368.25,776.16c-2.22.18-3.28-1.8-4.83-3.23-8.94-8.18-16.07-16.65-22.79-26.69-26.41-39.42-38.19-78.5-40.67-125.9-2.2-41.87,7.93-89.53,28.07-126.09,10.5-19.06,23.43-34.9,39.59-48.95,10.52-9.15,20.93-16.87,34.19-21.98,2.17-.84,4.54-1.81,5.55-3.83.66,1.01,2.85,2.93,2,4.17-43.69,16.12-74.15,54.61-89.91,97.56-22.85,62.29-21.09,131.64,5.56,192.42,10.57,24.11,25.43,44.31,43.25,62.51Z"/>
    <path class="cls-1" d="M481.28,647.66l8.47-14.96c8.92-22.46,5.02-47.82-11.48-65.23,3.02-1.71,4.81.99,6.57,2.49,12.21,10.36,15.09,23.21,15.51,38.73.32,11.66-2.25,21.9-9.26,31.18-2.56,3.39-4.57,7.6-9.82,7.78Z"/>
    <path class="cls-30" d="M421.32,397.56c-6.88,3.12-12.87,6.8-20.61,8.67,8.01-17.4,29.27-19.94,47.93-17.09-9.15,2.14-18.05,4.21-27.32,8.42Z"/>
    <path class="cls-29" d="M501.89,559.47c-3.65-.15-5.16-4.11-5.19-6.32-.03-2.66,1.31-5.9,4.61-6.38,3.75-.55,5.66,2.54,6.07,5.26.45,3.05-1.08,7.63-5.49,7.44Z"/>
    <path class="cls-27" d="M473.04,494.33l-3.39,2.4c-97.73,11.73-112.21,149.36-46.31,208.33,18.82,14.5,36.64,22.1,61.23,19.87l-12.51,76.88c-40.65,9.65-78.18-6.47-106.4-35.87-22.15-23.69-37.31-51.85-46.54-83.08-17.71-59.87-13.2-123.96,14.01-180.09,18.23-34.74,42.4-61.19,79.91-75.24l42.51,61.7c6.55,1.36,12.16,2.61,17.49,5.12Z"/>
    <path class="cls-13" d="M423.34,705.05c-10.9-7.8-19.15-18.11-26-30.52-21.04-38.13-22.65-84.78-4.02-124.16,15.25-32.24,44.42-55.73,79.72-56.04,4.15,1.95,8.49,3.55,12.67,6.91-22.61-2.04-43.16,4.12-59.64,18.63-50.7,44.6-49.47,135.4-5.52,180.99,1.29,1.34,2.29,2.71,2.8,4.19Z"/>
    <circle class="cls-41" cx="374.75" cy="509.1" r="7.67"/>
    <circle class="cls-5" cx="431.61" cy="473.05" r="7.68"/>
    <circle class="cls-15" cx="408.02" cy="448.38" r="7.6"/>
    <circle class="cls-39" cx="377.57" cy="551.27" r="7.59"/>
    <path class="cls-3" d="M405.54,479.35c-5.38.55-7.86-3.8-8.03-7.57-.17-3.69,1.88-7.78,6.42-8.23,4.07-.41,7.2,3.03,7.71,6.1.67,4-1.03,9.18-6.1,9.7Z"/>
    <circle class="cls-6" cx="398.69" cy="515.51" r="7.53"/>
    <path class="cls-36" d="M375.73,536.58c-5.36.48-7.99-3.67-8.02-7.47s1.81-7.83,6.37-8.21c4.14-.34,7.21,2.93,7.73,6.09.66,4.03-.96,9.14-6.08,9.6Z"/>
    <circle class="cls-2" cx="422.04" cy="494.13" r="7.58"/>
    <circle class="cls-46" cx="371.87" cy="485.08" r="7.5"/>
    <path class="cls-18" d="M351.65,559.06c-4.19-.39-6.05-4.18-6.04-7.17,0-3.44,1.5-7.59,5.58-8.39,5.01-.98,8.08,3.22,8.39,7.32s-2.23,8.77-7.93,8.24Z"/>
    <path class="cls-23" d="M364.27,596.82c-5.05-.02-7.17-4.57-7.02-8.05.18-3.98,2.91-8.04,7.45-7.74,4.25.28,6.42,4.11,6.51,7.62.09,3.5-2.17,8.18-6.94,8.17Z"/>
    <path class="cls-31" d="M346.92,538.52c-4.72.18-7.18-3.96-7.31-7.21-.16-4.06,2.11-8.24,6.79-8.33,4.54-.08,6.81,3.65,7.05,7.27s-1.62,8.07-6.53,8.26Z"/>
    <circle class="cls-15" cx="402.74" cy="494.68" r="7.52"/>
    <circle class="cls-20" cx="358.8" cy="570.38" r="7.49"/>
    <path class="cls-11" d="M468.94,756.19c-3.67-.88-4.42-4.37-4.3-6.97s1.45-6.19,4.96-6.88c4.33-.85,7.22,3.32,7.22,6.85,0,4.05-2.88,8.21-7.88,7Z"/>
    <path class="cls-38" d="M416.97,776.29c-4.22-.2-5.67-3.92-5.89-6.76-.24-3.05,1.44-6.96,5.29-7.41,4.33-.5,6.95,3.12,7.17,6.54.22,3.46-1.54,7.87-6.57,7.63Z"/>
    <path class="cls-24" d="M430.41,762.91c-4.64.67-7.33-3.25-7.23-6.84.09-3.38,2.46-7.28,6.6-6.98,3.49.25,5.24,3.35,5.67,6.13.46,3.04-.8,7.09-5.04,7.7Z"/>
    <path class="cls-9" d="M390.59,702.27c-4.56.28-6.52-3.87-6.56-6.99-.04-3.34,1.86-7.19,5.96-7.26,3.82-.07,5.92,3.27,6.38,6.58.39,2.81-1.55,7.41-5.78,7.68Z"/>
    <circle class="cls-28" cx="456.07" cy="787.77" r="6.72"/>
    <path class="cls-8" d="M442.99,749.18c-4.32.93-7.04-2.94-7.43-5.81-.53-3.85,1.67-8.11,6.08-8.3,3.67-.16,5.67,3.54,6.05,6.11.46,3.1-.78,7.16-4.71,8.01Z"/>
    <path class="cls-32" d="M461.64,776.09c-3.99-.04-5.66-3.83-5.8-6.47-.17-3.16,1.4-7.03,5.26-7.43,4.28-.44,6.68,3.08,6.91,6.47s-1.54,7.48-6.37,7.43Z"/>
    <path class="cls-16" d="M405.53,732.58c-4.22,0-5.88-3.94-6.11-6.51-.29-3.24,1.61-7.26,5.55-7.67s6.25,3.43,6.5,6.75c.22,2.96-1.4,7.43-5.94,7.43Z"/>
    <path class="cls-10" d="M405.53,789.87c-4.71,0-6.37-4.31-6.26-7.47.11-3.36,2.59-6.73,6.72-6.33,3.63.35,5.34,3.55,5.4,6.34.07,3.14-1.4,7.45-5.86,7.46Z"/>
    <circle class="cls-40" cx="375.48" cy="736.58" r="6.63"/>
    <path class="cls-25" d="M330.86,591.35c-4.19.16-5.85-3.74-6.2-6.28-.5-3.66,1.58-7.22,5.79-7.5s6.13,3.22,6.29,6.63c.14,2.93-1.41,6.98-5.89,7.15Z"/>
    <circle class="cls-45" cx="358" cy="696.91" r="6.61"/>
    <path class="cls-26" d="M372.22,704.23c-4-.2-5.3-4.15-5.48-6.66-.2-2.76.94-6.05,4.14-6.94,4.35-1.21,7.05,1.83,7.72,4.86.93,4.22-.89,9.02-6.38,8.75Z"/>
    <path class="cls-14" d="M352.86,624.5c-3.53-.4-4.8-3.85-4.96-6.15-.17-2.48.73-5.74,3.59-6.77,4.12-1.5,7.44,1.43,8.19,5.11.75,3.66-1.55,8.41-6.81,7.82Z"/>
    <circle class="cls-35" cx="372.07" cy="663.01" r="6.5"/>
    <path class="cls-21" d="M392.74,737.22c-4.14.84-6.51-2.61-6.91-5.49-.42-3.05.74-7.15,4.57-7.93,3.77-.77,6.24,2.38,7,5.49.68,2.78-.37,7.06-4.66,7.94Z"/>
    <path class="cls-21" d="M367.3,638.08c-4.55,1.15-7.31-2.74-7.55-5.89-.27-3.62,1.97-7.39,6.17-7.37,3.27.01,5.02,3.08,5.6,5.4.72,2.9-.35,6.89-4.22,7.86Z"/>
    <path class="cls-42" d="M344.62,611.09c-4.67,1-7.3-2.7-7.33-6.3-.03-2.89,1.54-6.99,5.38-7.02,3.39-.02,5.31,2.73,5.86,4.98.77,3.13.31,7.44-3.91,8.34Z"/>
    <path class="cls-44" d="M344.73,651.34c-4.27.56-6-2.96-6.5-5.46-.65-3.29.83-6.95,4.81-7.42,3.76-.44,5.85,2.5,6.28,5.68.33,2.48-.53,6.66-4.6,7.2Z"/>
    <circle class="cls-12" cx="361.55" cy="741.71" r="5.25"/>
    <circle class="cls-34" cx="339.8" cy="693.68" r="5.12"/>
    <path class="cls-33" d="M359.48,661.99c-3.55.5-5.03-2.55-5.23-4.6-.25-2.64.7-5.6,3.78-6.07,2.86-.44,4.72,1.93,5.11,4.13.41,2.3-.4,6.08-3.66,6.53Z"/>
    <circle class="cls-47" cx="330.73" cy="637.72" r="4.67"/>
    <path class="cls-29" d="M458.65,484.43l-41.71-60.74-8.85-13.83c44.36-22.77,82.79-25.04,113.56,17.89,3.26,4.48,6.4,8.38,8.74,13.81l-14.3,82.96c-13.27-20.99-32.46-35.81-57.43-40.09Z"/>
    <path class="cls-22" d="M440.36,415.47c.39,4.78-1.23,7.88-3.83,9.98-2.9,2.34-7.11,2.97-10.63.61-3.81-2.55-4.99-7.01-4.38-11.26.52-3.62,3-8.13,7.52-9.12,5.81-1.27,10.83,3.81,11.32,9.79Z"/>
    <path class="cls-29" d="M461.6,690.87c-3.35-.11-4.72-3.75-4.68-5.94.05-2.85,1.81-6.42,5.3-6.34s4.77,3.54,4.77,6.33c0,2.57-1.28,6.1-5.39,5.96Z"/>
    <path class="cls-29" d="M443.1,553.09c-3.14.19-4.76-2.94-5.06-4.78-.44-2.63.49-6.47,3.76-7.19,3.46-.76,5.9,2.39,6.28,5.34.33,2.58-1.05,6.4-4.97,6.63Z"/>
    <path class="cls-29" d="M419.3,635.31c-4.14.14-5.53-3.78-5.46-6.46.07-2.56,1.31-6.03,4.81-6.19s5,2.91,5.41,5.32c.47,2.8-.64,7.19-4.77,7.33Z"/>
    <polygon class="cls-29" points="637.26 420.07 545.48 429.15 554.09 376.16 644.49 375.56 637.26 420.07"/>
    <polygon class="cls-29" points="703.46 633.04 629.54 660.54 635.46 622.63 708.49 600.84 703.46 633.04"/>
    <path class="cls-4" d="M533.22,434.93l-9.33-14.22c1.96,2.16,4.9,2.86,6.29,7.07.72,2.19,3.58,4.27,3.04,7.16Z"/>
    <polygon class="cls-29" points="656.73 300.3 536.72 291.25 312.83 274.56 358.66 240.72 548.48 265.66 659.76 280.28 656.73 300.3"/>
    <polygon class="cls-29" points="853.14 354.15 676.7 356.3 682.67 321.63 845.03 328.99 853.14 354.15"/>
    <path class="cls-29" d="M838.91,310.95l-153.08-8.42,2.59-18,147.57,17.75c2.2,2.75,3.18,5.95,2.91,8.67Z"/>
    <polygon class="cls-29" points="738.45 411.03 667.57 415.97 673.3 379.72 744.45 373.61 738.45 411.03"/>
    <path class="cls-29" d="M830.24,284.42l-140.15-17,2.29-17.12,134.17,25.24c2.41,1.65,3.49,5.79,3.69,8.89Z"/>
    <path class="cls-29" d="M646.81,360.49l-90.53.2c1.14-7.05,2.85-12.52,2.36-19.68l-325.29-16.3,40.14-29.86,243.62,14.01,136.57,7.61-6.87,44.03Z"/>
    <polygon class="cls-29" points="719.47 527.99 648.12 539.92 654.56 502.45 725.16 492.58 719.47 527.99"/>
  </g>
</svg>