<?xml version="1.0" encoding="UTF-8"?>
<svg id="Layer_1" data-name="Layer 1" xmlns="http://www.w3.org/2000/svg" viewBox="0 0 1080 1080">
  <defs>
    <style>
      .cls-1 {
        fill: #2f3933;
      }

      .cls-2 {
        fill: #14361e;
      }

      .cls-3 {
        fill: #1a3f24;
      }

      .cls-4 {
        fill: #ecd731;
      }

      .cls-5 {
        fill: #bdbdbd;
      }

      .cls-6 {
        fill: #183d21;
      }

      .cls-7 {
        fill: #0c371a;
      }

      .cls-8 {
        fill: #193b24;
      }

      .cls-9 {
        fill: #10381c;
      }

      .cls-10 {
        fill: #f6d30c;
      }

      .cls-11 {
        fill: #0e371b;
      }

      .cls-12 {
        fill: #194026;
      }

      .cls-13 {
        fill: #163720;
      }

      .cls-14 {
        fill: #b2bbb6;
      }

      .cls-15 {
        fill: #193e25;
      }

      .cls-16 {
        fill: #183f26;
      }

      .cls-17 {
        fill: #1e412a;
      }

      .cls-18 {
        fill: #0e361a;
      }

      .cls-19 {
        fill: #0e361b;
      }

      .cls-20 {
        fill: #8f9091;
      }

      .cls-21 {
        fill: #16381f;
      }

      .cls-22 {
        fill: #0c351a;
      }

      .cls-23 {
        fill: #16381e;
      }

      .cls-24 {
        fill: #183c22;
      }

      .cls-25 {
        fill: #7f8082;
      }

      .cls-26 {
        fill: #153a21;
      }

      .cls-27 {
        fill: #f0d521;
      }

      .cls-28 {
        fill: #12351d;
      }

      .cls-29 {
        fill: #183c23;
      }

      .cls-30 {
        fill: #f7d30e;
      }

      .cls-31 {
        fill: #153921;
      }

      .cls-32 {
        fill: #f4d314;
      }

      .cls-33 {
        fill: #183c24;
      }

      .cls-34 {
        fill: #173820;
      }

      .cls-35 {
        fill: #173e24;
      }

      .cls-36 {
        fill: #173721;
      }

      .cls-37 {
        fill: #cfd0cf;
      }

      .cls-38 {
        fill: #20482c;
      }

      .cls-39 {
        fill: #0e381b;
      }

      .cls-40 {
        fill: #184025;
      }

      .cls-41 {
        fill: #477b4d;
      }

      .cls-42 {
        fill: #efd522;
      }

      .cls-43 {
        fill: #1a3c24;
      }

      .cls-44 {
        fill: #13341e;
      }

      .cls-45 {
        fill: #0d371b;
      }

      .cls-46 {
        fill: #15341f;
      }

      .cls-47 {
        fill: #0d3619;
      }

      .cls-48 {
        fill: #1f412b;
      }

      .cls-49 {
        fill: #16391f;
      }

      .cls-50 {
        fill: #183721;
      }

      .cls-51 {
        fill: #ecd535;
      }

      .cls-52 {
        fill: #0d391b;
      }

      .cls-53 {
        fill: #0f391c;
      }

      .cls-54 {
        fill: #1a3e26;
      }

      .cls-55 {
        fill: #173d23;
      }

      .cls-56 {
        fill: #14361f;
      }

      .cls-57 {
        fill: #0f371b;
      }

      .cls-58 {
        fill: #babcba;
      }

      .cls-59 {
        fill: #183b21;
      }

      .cls-60 {
        fill: #1a3e25;
      }

      .cls-61 {
        fill: #0d381b;
      }

      .cls-62 {
        fill: #989d8b;
      }

      .cls-63 {
        fill: #efe081;
      }

      .cls-64 {
        fill: #183d25;
      }

      .cls-65 {
        fill: #0f3b1d;
      }

      .cls-66 {
        fill: #16351f;
      }

      .cls-67 {
        fill: #183d23;
      }

      .cls-68 {
        fill: #0e391c;
      }

      .cls-69 {
        fill: #1b3923;
      }
    </style>
  </defs>
  <path class="cls-25" d="M229.57,551.46c-12.52,8.57-14.92,29.4-6.06,42.82,4.32,6.54,11.45,10.18,19.05,8.44,5.14-1.58,8.65-5.17,12.11-9.51l-7.11,44.5c-11.95,1.86-23.35-2.29-32.12-10.46-20.44-19.04-24.56-54.46-12.74-79.72,9.41-20.1,28.76-33.67,50.9-26.31,4.4,2.52,7.33,8.15,10.42,12.12l-1.59,9.18c-.48,2.15-1.06,6.05-1.1,7.54-.12,6.76-1.75,13.01-2.89,19.9-1.59-5.87-3.5-10.9-7.27-15.3-5.58-6.5-14.39-8.14-21.59-3.21Z"/>
  <path class="cls-30" d="M461.28,565.53c8.64-13.02,14.94-25.48,15.57-40.81.8-19.46,7.41-49.72,3.85-66.66-6.03-38.64-25.68-75.52-57.92-97.95-36.31-25.26-82.28-27.08-120.16-3.86l-1.45,1.22-79.2-18.25h-2.49l-89.03,24.34-86.65,61.92,196.91,12.86-2.8,14.99c14.41,1.01,22.5,8.66,31.08,18.15,2.18,2.3,4.02,5,5.2,7.92-.14.74.83,1.73,1.1,2.36-.08.45.03.81.27,1.1.13,1.26-.24,2.66-.48,4.12l-32.19,199.14c-3.21,1.96-7.69,1.77-11.74,2.26-9.38,1.13-18.49-1.49-27.07-4.31-.46.21-.98.15-1.28.47-2.93-2.89-5.08-2.73-3.34,1.89-.06,3.5.21,6.94.83,10.32,1.82,1.67,3.45,3.48,4.87,5.45l30.99,34.49c3.3-1.36,6.09-3.1,8.73-5.12,0,0,0,0,0,0l59.61-35.17h0c2.74-.89,5.19-2.77,7.68-4.24l51.14-30.12c.68-4.16.9-8.15.99-12.1l1.77-21.65c14.35-.65,27.73-4.38,40.08-10.29,15.13-7.24,28.32-17.7,39.45-30.73,1.14-1.21,2.24-2.52,3.27-3.97.04-.05.08-.11.11-.16,1.23-1.56,2.45-3.15,3.63-4.78h-.22c1.95-2.74,3.85-5.41,5.68-8.05,1.09-1.41,2.39-2.98,3.26-4.78ZM295.99,442.46h0s.04,0,.04,0h-.04ZM387.16,577.2l.7.81h-.83s.14-.81.14-.81Z"/>
  <path class="cls-30" d="M441.74,704.25c-3.49.49-4.1-.02-.63-1.65l32.67-9.48c57.37-15.78,115.54-27.38,174.81-32.68l17.12-1.53,27.36-1.91,16.63-.61,22.55-.6h18.25s23.19.57,23.19.57l15.46.69c33.26,1.48,66.14,5.3,99.21,11.21,47.86,8.17,94.44,20.13,140.64,35.86l-.16,45.17c-51.55-20.95-104.25-36.97-158.52-48.33-53.01-11.12-106.54-17.22-160.4-19.63l-29.53-.62h-23.11s-28.06.65-28.06.65l-11.44.66-12.89.55-14.98,1.06-28.22,2.49c-40.43,4.25-80.23,10.24-119.95,18.13Z"/>
  <path class="cls-63" d="M441.11,702.61l-1.64,1.51,2.28.13c-3.35.67-6.14,1.53-9.72,1.52,2.9-1.77,6.05-2.29,9.09-3.17Z"/>
  <path class="cls-9" d="M956.57,637.32c-1.6.57-3.21.35-4.8.21l3.86-21.03c.26-1.4-.08-3.06-1.22-3.7-3.76-2.1-8.62,2.62-9.48,7.26l-3.22,17.42c-1.31.3-2.61.26-4.67.13l4.93-28.74c1.66-.58,2.95-.51,4.44-.02-.27,1.13-.61,1.99-.32,3.36,2.01-1.85,3.94-3.64,6.8-4.11,3.41-.56,6.36,1.04,7.26,4.69,3.65-5.13,10.35-6.37,13.54-2.7,1.21,1.39,1.76,3.58,1.41,5.72l-3.54,21.67c-1.79.32-3.01.36-4.8.05l3.68-21.66c.21-1.24-.35-2.56-1.28-3.13-2.98-1.83-8.53,1.77-9.62,7.85l-2.97,16.73Z"/>
  <path class="cls-61" d="M625.45,629.8c-2.15,9.38-15.1,11.34-22.26,6.7-3.79-2.46-4.88-7.16-4.75-11.3,1.85-.42,3.15-.55,5.08-.42-.37,3.41.67,6.71,3.69,8.29,3.26,1.71,7.4,1.58,10.51-.25,2.18-1.28,3.11-3.5,2.99-5.74s-1.52-3.96-3.73-5.06l-8.07-4.02c-3.72-1.86-6.16-5.05-6.18-8.88-.02-4.06,1.84-8,5.75-9.86,3.5-1.66,7.48-1.88,11.22-.97,5.39,1.31,8.59,6.09,8.28,11.38l-4.83.22c-.03-2.35-.77-4.35-2.16-5.64-1.86-1.73-4.2-2.05-6.78-1.92-3.06.15-5.63,1.79-6.33,4.42-2.64,10.01,21.15,7.52,17.58,23.06Z"/>
  <path class="cls-19" d="M482.34,615.56c.12,1.89-.28,3.08-.67,4.66l-17.14.14-3.11,18.21-4.96-.1,6.91-39.83,22.19-.11-.73,4.6-17.15.06-2.26,12.37h16.91Z"/>
  <path class="cls-18" d="M782.68,643.64c1.68-.92,4.15-4.47,3.83-6.62l-4.25-28.27c1.52-.44,2.97-.43,4.62.06l3.28,21.93,10.67-21.96c1.56-.47,3.15-.54,4.85-.05l-17.65,35.75c-1.88,3.82-5.73,5.48-9.59,3.97-.22-1.73-.31-2.83.17-4.79.96.05,2.44.86,4.07-.03Z"/>
  <path class="cls-57" d="M880.31,637.64l-4.96-.12,6.25-35.2-11.23-.05c-.1-1.6.16-3.19.83-4.75l26.81-.02c.2,1.59-.1,3.21-.77,4.78l-10.72.12-6.2,35.25Z"/>
  <path class="cls-39" d="M712.81,609.53l-4.97,28.34c-1.43.47-2.55.48-4.28.22.09-1.26.54-2.33-.04-3.95-3.56,4.78-9.62,6.14-13.03,2.87-1.33-1.28-2.36-3.59-1.97-5.87l3.63-21.58c1.68-.53,2.93-.59,4.67-.15l-3.58,20.49c-.23,1.31.04,2.71.79,3.57s2.32,1.2,3.87.83c3.58-.86,6.25-3.99,6.99-7.71l3.37-17.02c.99-.56,2.54-.71,4.55-.03Z"/>
  <path class="cls-68" d="M534.59,620.24l-3.43,18.31-4.42-.08,4.9-28.56c.24-.89,3.14-.84,3.89-.36l-.34,3.88c3.95-4.47,9.74-6.3,13.16-2.96,1.36,1.33,2.23,3.71,1.86,6.05l-3.49,21.89c-1.64.33-3.03.21-4.53-.19l3.57-21.09c.22-1.29-.19-2.71-.84-3.23-.94-.76-2.2-1.06-3.64-.78-3.29.63-6,3.53-6.68,7.13Z"/>
  <path class="cls-39" d="M720.18,637.85c-1.62.51-3.24.54-4.73-.09l5.17-28.51c1.41-.23,2.43-.25,4.01-.03-.12,1.4-.8,2.5-.35,4.25l2.93-3.46c1.76-2.08,4.82-2.12,7.16-.39-.36,1.78-1.01,3.33-1.98,4.86-1.97-1.22-4.22-.98-5.78.71-1.93,2.11-3.31,4.78-3.81,7.66l-2.63,15Z"/>
  <path class="cls-11" d="M488.9,638.36c-1.78.44-3.2.33-4.53.04l5-28.55c1.02-.73,2.74-.71,4.01-.33-.14,1.73-.79,3.16-.27,4.56,1.65-3.91,5.63-6.57,9.18-4.36.58,1.36-.73,3.78-1.59,4.86-4.18-2.15-8,3.11-8.89,7.93l-2.91,15.85Z"/>
  <path class="cls-9" d="M901.09,637.45c-1.58.37-2.87.41-4.76,0l5.02-28.53c1.57-.65,3.18-.56,4.73-.06l-4.99,28.58Z"/>
  <path class="cls-38" d="M907.05,602.94c-1.77.38-3.04.3-4.58.12l.96-5.42,4.59-.16-.97,5.46Z"/>
  <path class="cls-22" d="M658.35,640.9c1.55-.22,2.85.07,3.74.24.81.15.65,2.09,1.38,2.86,2.34,2.46,7.41,2.06,9.4-.69,1.81-2.5,2.08-5.33,2.54-8.42-2.56,2.27-5.36,3.61-8.77,2.97-2.77-.52-5.39-2.86-6.39-6.15-2.2-7.21-.27-15.53,5.31-20.62,2.14-1.96,4.89-2.73,7.68-2.42,2.22.24,4.45,1.78,6.19,4.42.83-1.23.66-2.19.75-3.55,1.54-.44,2.74-.58,4.59-.06l-5.58,30.94c-1.23,6.84-6.6,9.89-13.19,9.29-4.83-.44-8.6-3.85-7.64-8.79ZM673.65,612.92c-6.32-1.31-11.22,8.28-8.94,16.89.52,1.97,2.29,3.41,3.72,3.69,6.58,1.29,11.26-8.6,9.15-16.42-.59-2.2-2.22-3.81-3.94-4.17Z"/>
  <path class="cls-65" d="M981.65,648.19c-1.5.43-2.92.42-4.82.04l6.94-39.25c1.44-.48,2.69-.37,4.13-.17l-.27,3.29c2.36-2.68,5.32-4.48,8.91-3.83,3.25.59,6.05,3.24,6.83,7.01,1.62,7.82-.43,16.3-6.74,21.19-2.16,1.67-4.73,2.05-7.28,1.51-2.06-.44-3.79-1.98-5.03-4.45l-2.68,14.67ZM995.04,612.4c-1.59-.33-3.83.05-5.18,1.56-5.73,6.39-6.08,18.66.11,20.06,5.5,1.25,10.65-8.14,8.89-17.35-.43-2.27-1.97-3.89-3.82-4.27Z"/>
  <path class="cls-68" d="M840.74,634.43c-2.92,3.3-7.92,5.06-12.24,2.89-3.59-1.81-4.67-6.24-3.78-9.9s4.19-6.32,8.41-6.79l8.59-.95c2.12-.24,2.18-2.84,1.8-4.6-.4-1.87-2.17-2.78-4.43-2.98-3.4-.3-6.33,1.3-7.32,4.82-1.64.47-3.33.18-4.89-.16,1.9-6.86,7.74-9.62,14.18-8.62,4.36.68,7.9,3.67,7.13,8.41l-2.05,12.69c-.46,2.88-.58,5.4.18,8.24-1.74.18-3.05.31-4.59-.09-.48-.24-.62-1.6-.99-2.96ZM840.28,630.42c1.28-2.15,1.73-4.28,2.13-7.36l-8.63,1.48c-2.18.37-3.9,1.78-4.39,3.68-.44,1.71-.27,4.22,2.01,5.33,3.39,1.66,7.14-.21,8.88-3.14Z"/>
  <path class="cls-53" d="M927.21,628.62c.65-1.36,3.76-.69,4.8-.09-1.47,4.21-4.27,7.83-8.32,9.12-5.98,1.92-12.17-1.02-13.52-7.26-1.48-6.83.17-14.52,5.19-19.31,4.7-4.48,12.21-4.33,15.84.84,2.51,3.56,2.51,7.98,1.86,12.4l-18.57.07c-.47,2.82-.05,6.84,2.63,8.63,3.97,2.64,8.14-.29,10.1-4.4ZM926.43,612.89c-2.46-1.36-5.53-1.16-7.61.81-1.87,1.77-3.14,3.85-3.55,6.72l13.49-.09c.35-3.45-.54-5.52-2.33-7.45Z"/>
  <path class="cls-7" d="M642.59,634.47c4.6-.6,5.66-5.5,6.71-5.82s2.58-.22,4.15.37c-1.16,4.6-4.87,8.83-9.89,9.63-5.66.89-10.66-2.12-11.82-7.74-2.12-10.24,3.04-22.59,13.58-22.4,4.06.07,7.39,2.63,8.73,6.51,1.09,3.15,1.08,6.46.52,9.91l-18.5.02c-.22,2.69-.03,5.46,1.65,7.64,1.19,1.55,3.01,2.13,4.86,1.89ZM648.36,613.89c-1.7-1.61-4.55-1.79-6.65-.56-2.75,1.61-4.49,4.42-4.75,7.57l13.49.03c.3-3.37-.54-5.59-2.08-7.05Z"/>
  <path class="cls-52" d="M562.13,634.45c3.74,1.47,7.05-1.18,8.81-5.59,1.55-.18,2.74-.19,4.58.51-1.36,4.03-4.07,7.81-8.14,9.13-5.81,1.89-11.53-1.13-12.84-7.11-1.38-6.3-.13-13.15,3.8-18.3,3.75-4.92,11.09-5.99,15.37-1.51,3.43,3.59,3.69,8.96,2.65,13.53l-17.78.07c-.47,4.12.76,8.17,3.54,9.26ZM569.83,613.58c-1.92-1.41-4.68-.79-6.49.61-2.28,1.76-3.51,4.36-3.92,7.03l12.92.03c.47-2.68-.12-5.91-2.51-7.67Z"/>
  <path class="cls-47" d="M513.56,634.42c2.58-1.11,3.47-3.28,4.73-5.3.94-.78,3.22-.3,4.44.28-1.24,3.41-3.22,6.8-6.55,8.49-2.85,1.44-6.12,1.61-9.31.2-7.62-3.37-7.55-18.8.19-26.38,2.45-2.4,5.62-3.19,8.91-2.81,6.82.78,9.2,8.5,7.75,16.25l-17.78.03c-.27,2.23-.05,4.54.9,6.68,1.14,2.57,3.95,3.76,6.72,2.57ZM518.28,614.61c-1.5-1.8-4.04-2.33-6.28-1.24-3.11,1.52-4.94,4.75-5.28,7.92l13.05-.23c.17-3.1-.43-4.59-1.49-6.45Z"/>
  <path class="cls-45" d="M1018.4,638.18c-4.7,0-8.22-2.65-9.49-6.84-1.67-5.55-.71-11.66,2.13-16.74,3.07-5.49,9.48-8.05,15.34-5.73,7.3,2.89,8.04,15.8,2.39,23.99-2.35,3.4-5.92,5.31-10.38,5.32ZM1023.18,612.29c-2.17-.44-4.49.09-6.24,1.95-3.78,4.05-5.05,10.43-3.52,15.82.63,2.23,2.84,3.67,4.61,3.97,6.08,1.01,11.01-8.44,9.51-16.76-.48-2.65-2.18-4.54-4.36-4.99Z"/>
  <path class="cls-39" d="M738.91,637.13c-7.37-4.14-6.15-18.49.02-24.97,2.45-2.57,5.68-3.89,9.12-3.77,3,.1,6.63,1.49,8.27,4.73,3.18,6.25,2.12,13.97-1.64,19.84-3.35,5.22-10.12,7.35-15.77,4.17ZM748.63,612.59c-2.29-.39-4.46.18-6.07,2.03-5.59,6.44-5.57,18.78,1.14,19.81,6.17.95,11.38-8.37,9.35-17.48-.56-2.5-2.61-4.06-4.42-4.37Z"/>
  <rect class="cls-41" x="834.48" y="553.61" width="17.92" height="22.01"/>
  <rect class="cls-41" x="925.21" y="553.59" width="17.92" height="22.05"/>
  <rect class="cls-41" x="1018.3" y="553.56" width="17.91" height="22.05"/>
  <path class="cls-41" d="M803.86,550.14l-18.28-.02-3.85,25.41-19.94.02,13.94-82.38,5.61-33.01,28.25-.07,17.64,115.41-19.96.02-3.41-25.39ZM794.75,479.04l-9.56,52.16,18.66-.19-9.1-51.96Z"/>
  <path class="cls-41" d="M961.09,527.91c8.7-2.43,27.85-.02,27.9-2.99l.26-15.11c.02-1.14-.68-3.54-2.04-3.54l-16.73-.08-.46,10.74-13.94.03,1.01-18.27,6.82-8.22,34.76.3,9.13,10.29.05,74.49h-18.27s-1.77-6.47-1.77-6.47l-6.26,7.12-17.54-.07-9.9-9.65-.1-31.15c1.93-2.45,4.13-5.69,7.08-7.41ZM989.06,558.11v-22.02s-15.45.21-15.45.21c-2.37.03-3.73,1.82-3.72,4.13l.09,16.02c.01,2.28,1.67,4.05,3.97,4.05l12.53-.02c1.57,0,2.57-1.14,2.57-2.38Z"/>
  <path class="cls-41" d="M618.84,526.94l.21,32.43c.01,1.81-.4,3.5-1.57,4.82l-9.89,11.34-43.21.04.06-114.57,42.41-.06,9.59,10.24c1.32,1.61,2.51,3.17,2.51,5.4l.06,29.64-10.08,10.68,9.92,10.04ZM600.66,483.04c-.16-2.77-2.24-4.47-4.95-4.46l-14.35.05-.13,30.52,14.47-.06c2.95-.01,5.2-2.01,5.03-5.02l-.06-21.03ZM600.71,530.9c-.06-2.08-1.56-4.37-3.74-4.37h-16.07s.28,31.27.28,31.27l14.55.09c2.72.02,4.96-1.93,4.97-4.95l.02-22.04Z"/>
  <path class="cls-41" d="M733.39,557.3c3.71.02,4.78-2.99,4.75-5.93l-.18-19.94,16.74-3.67-.1,37.46-9.32,10.68c-11.09.95-21.92.83-33,.33l-9.09-10.35c-1.93-2.2-2.87-4.4-2.87-7.61l.06-79.69c0-1.88-.04-4.21,1.06-5.48l10.43-12.08c10.96-.56,21.57-1.37,32.51-.07,2.15.25,3.6,3.06,4.84,4.6,1.69,2.11,4.61,4.11,5.22,6.77l.49,25.84-16.78,3.18.03-16.44c0-2.99-2.04-5.32-5.09-5.34l-9.67-.03c-2.49,0-5.12,1.92-5.13,4.84l-.07,68.2c0,2.82,1.98,4.66,4.63,4.67l10.54.07Z"/>
  <path class="cls-41" d="M677.42,576.09l-35.17.22-10.45-11.84-.4-14.49-.04-73.96c0-3.46,1.71-5.5,3.81-7.86l6.44-7.21c12.08-.93,24.02-.98,36.14-.12l6.92,7.91c1.65,1.89,2.86,3.34,2.86,6.1v86.62c0,1.67-.14,2.93-.6,4.36l-9.51,10.27ZM670.29,553.14v-69.43c0-2.32-1.66-4.27-3.92-4.26l-13.49.05c-2.68,0-4.03,2.24-4.03,4.82l-.09,68.26c0,2.69,1.34,4.85,4.19,4.83l13.65-.1c2.28-.02,3.68-2.1,3.68-4.16Z"/>
  <path class="cls-41" d="M894.4,562.05c2.59.03,4.07-1.49,4.08-3.72l.1-15.49,15.92-2.46.06,27.35-8.93,8.03-33.35.08c-4.48-2.88-7.97-6.49-11.71-10.42l.19-63.25c0-2.44,2.86-3.99,4.27-5.34l6.32-6.06,34.07-.24,9.07,7.32.04,20.8-16.04,1.94.02-12.06c0-2.59-1.7-4.66-4.42-4.66l-10.92.03c-2.13,0-3.88,1.8-3.88,4.03l-.02,49.79c0,2.12,1.32,4.19,3.42,4.22l11.69.13Z"/>
  <path class="cls-41" d="M531.39,490.24l-2.32,13.17-13.53,72.13-16.6-.08-7.02-37.39-8.97-47.76c-.15-.79-.91-1.45-1.36-1.4-.49.06-1.12.89-1.12,1.82l.31,84.78h-16.1s0-114.49,0-114.49l28.61-.06,14.07,81.42,14.02-81.31,29.69-.03v114.49s-17.49,0-17.49,0l.35-84.8c0-1.04-.63-1.7-1.29-1.74-.76-.06-1.07.24-1.25,1.25Z"/>
  <path class="cls-14" d="M486.72,528.09c.66,3.77-1.58,7.5-2.71,11.22l.06-26.39,2.64,15.17Z"/>
  <polygon class="cls-41" points="346.2 382.19 264.76 371.63 195.44 362.81 222.81 340.78 347.94 370.26 346.2 382.19"/>
  <path class="cls-58" d="M483.82,457.96c-9.34-63.01-54.98-118.52-121.21-121.26l-.03-6c36.37.97,68.38,17.38,92.05,44.83,19.97,23.16,32.35,51.35,36.53,82.15-2.15.59-4.17.35-7.34.28Z"/>
  <path class="cls-5" d="M367.97,638.27l.07-6.82c36.52-2.76,67.24-23.02,88.18-52.72l2.6-.7c0-2.65.82-4.64,2.64-6.58.55,2.63.38,4.29.26,6.73,1.07.35,2.11.23,3.81.31-22.05,33.26-56.31,57.43-97.57,59.78Z"/>
  <polygon class="cls-41" points="382.95 501.07 343.06 507.8 347.88 478.38 386.96 476.07 382.95 501.07"/>
  <polygon class="cls-41" points="373.39 562.11 332.79 573.4 336.45 549.49 376.56 541.45 373.39 562.11"/>
  <path class="cls-10" d="M360.88,540.08c-1.6.91-9.26,2.55-11.85,2,.8-.63.62-1.4.76-1.76s1.15-.63,1.68-.52c2.17.48,3.49-.93,5.3-1.09l5.31-.48c2.95-.27,5.82-1.68,8.87-.18-2.1.71-3.67.66-5.62,1.55l-4.46.48Z"/>
  <path class="cls-10" d="M346.18,541.6c.35.93-.39,1.73-.87,1.93-.51.21-1.99.13-2.11-.37-.24-.99.16-1.67.54-1.83.55-.23,2.18-.45,2.45.27Z"/>
  <polygon class="cls-41" points="432.76 550.34 414.16 550.17 410.5 575.5 390.36 575.45 410.2 460.23 438.09 460.16 455.53 575.41 435.95 575.51 432.76 550.34"/>
  <polygon class="cls-32" points="429.17 528.48 417.05 528.44 423.39 494.2 429.17 528.48"/>
  <polygon class="cls-41" points="363.04 627.31 321.98 645.48 326.41 615.77 366.95 602.31 363.04 627.31"/>
  <polygon class="cls-41" points="297.33 695.77 242.81 725.46 248.16 689.49 301.88 666.4 297.33 695.77"/>
  <polygon class="cls-41" points="303.49 655.02 250.56 675.11 255.71 643.35 308.68 622.15 303.49 655.02"/>
  <polygon class="cls-41" points="310.21 612.78 257.55 631.05 261.65 605.24 314.02 588.66 310.21 612.78"/>
  <polygon class="cls-41" points="325.89 511.69 274.62 518.79 279.93 486.15 330.94 479.78 325.89 511.69"/>
  <polygon class="cls-41" points="315.28 579.34 263.1 594.76 268.23 563.02 319.72 551.38 315.28 579.34"/>
  <polygon class="cls-41" points="321.18 542.19 269.57 553.34 273.58 527.87 324.54 520.74 321.18 542.19"/>
  <polygon class="cls-41" points="316.83 680.61 320.54 655.62 360.63 639.5 358.44 657.95 316.83 680.61"/>
  <path class="cls-41" d="M243.56,553.25c5.21,2.41,8.03,9.24,9.33,14.74,2.35,9.97.5,23.29-7.66,29.95-3.64,3.08-8.81,2.9-13.02.46-10.62-6.18-13.45-21.14-9.1-33.61,3.24-9.29,12.43-16.23,20.44-11.54Z"/>
  <path class="cls-51" d="M204.05,470.8c.39.5.51,1.01.25,1.55-72.53,32.34-76.73,146.62-22.04,197.21,6.11,6.24,13.84,10.78,21.81,14.52.17.63-.25.79-1.28.47-.99-.68-1.93-.97-3.35-1,.91,3.05.82,5.91.61,8.97-.42,6.19,4.44,5.67,5.09,9.68l-5.62-5.4-.76-11.94c-13.56-8.06-24.91-18.81-33.92-31.73-29.32-42.06-31.75-97.57-6.12-141.96,9.32-16.14,22.04-29.45,37.94-39.31l3.2-7.47,4.19,6.41Z"/>
  <path class="cls-62" d="M182.25,669.55c-1.24.1-1.83-1-2.69-1.8-4.98-4.56-8.95-9.28-12.7-14.87-14.72-21.97-21.28-43.75-22.66-70.16-1.22-23.33,4.42-49.89,15.64-70.26,5.85-10.62,13.06-19.45,22.06-27.27,5.86-5.1,11.66-9.4,19.05-12.25,1.21-.47,2.53-1.01,3.09-2.14.37.56,1.59,1.63,1.11,2.32-24.35,8.98-41.32,30.43-50.1,54.37-12.74,34.71-11.75,73.35,3.1,107.23,5.89,13.44,14.17,24.69,24.1,34.83Z"/>
  <path class="cls-1" d="M245.24,597.94l4.72-8.33c4.97-12.52,2.8-26.65-6.4-36.35,1.68-.95,2.68.55,3.66,1.39,6.81,5.77,8.41,12.94,8.64,21.58.18,6.5-1.25,12.2-5.16,17.38-1.43,1.89-2.54,4.23-5.47,4.34Z"/>
  <path class="cls-42" d="M211.83,458.58c-3.83,1.74-7.17,3.79-11.49,4.83,4.46-9.7,16.31-11.11,26.71-9.52-5.1,1.2-10.06,2.35-15.22,4.69Z"/>
  <path class="cls-41" d="M256.72,548.8c-2.04-.08-2.88-2.29-2.89-3.52-.02-1.48.73-3.29,2.57-3.56,2.09-.3,3.16,1.41,3.38,2.93.25,1.7-.6,4.25-3.06,4.15Z"/>
  <path class="cls-37" d="M240.65,512.5l-1.89,1.34c-54.46,6.54-62.53,83.23-25.81,116.09,10.49,8.08,20.42,12.32,34.12,11.07l-6.97,42.84c-22.65,5.38-43.57-3.6-59.29-19.99-12.34-13.2-20.79-28.9-25.94-46.3-9.87-33.36-7.35-69.08,7.8-100.36,10.16-19.36,23.63-34.1,44.53-41.93l23.69,34.38c3.65.76,6.77,1.46,9.75,2.85Z"/>
  <path class="cls-20" d="M212.95,629.93c-6.07-4.35-10.67-10.09-14.49-17.01-11.72-21.25-12.62-47.25-2.24-69.19,8.5-17.97,24.75-31.05,44.42-31.23,2.31,1.09,4.73,1.98,7.06,3.85-12.6-1.14-24.05,2.3-33.23,10.38-28.25,24.86-27.57,75.45-3.08,100.86.72.75,1.27,1.51,1.56,2.34Z"/>
  <circle class="cls-59" cx="185.87" cy="520.73" r="4.27"/>
  <circle class="cls-6" cx="217.56" cy="500.64" r="4.28"/>
  <circle class="cls-23" cx="204.42" cy="486.9" r="4.23"/>
  <circle class="cls-55" cx="187.45" cy="544.23" r="4.23"/>
  <path class="cls-3" d="M203.04,504.16c-3,.31-4.38-2.12-4.48-4.22s1.05-4.33,3.58-4.59c2.27-.23,4.01,1.69,4.3,3.4.37,2.23-.58,5.12-3.4,5.41Z"/>
  <circle class="cls-8" cx="199.21" cy="524.3" r="4.2"/>
  <path class="cls-50" d="M186.42,536.04c-2.99.27-4.45-2.04-4.47-4.16s1.01-4.37,3.55-4.58c2.31-.19,4.02,1.63,4.31,3.39.37,2.25-.53,5.1-3.39,5.35Z"/>
  <circle class="cls-2" cx="212.23" cy="512.39" r="4.22"/>
  <circle class="cls-67" cx="184.27" cy="507.34" r="4.18"/>
  <path class="cls-26" d="M173,548.57c-2.33-.22-3.37-2.33-3.37-4,0-1.92.84-4.23,3.11-4.67,2.79-.55,4.5,1.79,4.68,4.08s-1.24,4.89-4.42,4.59Z"/>
  <path class="cls-33" d="M180.03,569.61c-2.82,0-4-2.55-3.91-4.49.1-2.22,1.62-4.48,4.15-4.31,2.37.16,3.58,2.29,3.63,4.25s-1.21,4.56-3.87,4.55Z"/>
  <path class="cls-43" d="M170.37,537.13c-2.63.1-4-2.21-4.07-4.02-.09-2.26,1.17-4.59,3.78-4.64s3.8,2.03,3.93,4.05-.9,4.5-3.64,4.6Z"/>
  <circle class="cls-23" cx="201.48" cy="512.7" r="4.19"/>
  <circle class="cls-28" cx="176.99" cy="554.88" r="4.18"/>
  <path class="cls-16" d="M238.36,658.42c-2.04-.49-2.46-2.43-2.39-3.89s.81-3.45,2.76-3.83c2.41-.47,4.02,1.85,4.02,3.82,0,2.26-1.61,4.57-4.39,3.9Z"/>
  <path class="cls-54" d="M209.4,669.62c-2.35-.11-3.16-2.19-3.28-3.77-.13-1.7.8-3.88,2.95-4.13,2.41-.28,3.87,1.74,4,3.64s-.86,4.39-3.66,4.25Z"/>
  <path class="cls-34" d="M216.89,662.17c-2.59.37-4.08-1.81-4.03-3.81.05-1.89,1.37-4.06,3.68-3.89,1.95.14,2.92,1.87,3.16,3.41.26,1.7-.45,3.95-2.81,4.29Z"/>
  <path class="cls-13" d="M194.7,628.37c-2.54.16-3.63-2.16-3.65-3.9-.02-1.86,1.04-4,3.32-4.05,2.13-.04,3.3,1.82,3.55,3.67.21,1.56-.86,4.13-3.22,4.28Z"/>
  <circle class="cls-40" cx="231.19" cy="676.02" r="3.74"/>
  <path class="cls-12" d="M223.9,654.52c-2.41.52-3.92-1.64-4.14-3.24-.29-2.14.93-4.52,3.39-4.63,2.05-.09,3.16,1.97,3.37,3.4.26,1.73-.43,3.99-2.62,4.46Z"/>
  <path class="cls-44" d="M234.29,669.51c-2.23-.02-3.15-2.14-3.23-3.61-.1-1.76.78-3.92,2.93-4.14,2.39-.24,3.73,1.72,3.85,3.61s-.86,4.17-3.55,4.14Z"/>
  <path class="cls-24" d="M203.03,645.27c-2.35,0-3.28-2.19-3.4-3.63-.16-1.81.9-4.04,3.09-4.27s3.49,1.91,3.62,3.76c.12,1.65-.78,4.14-3.31,4.14Z"/>
  <path class="cls-15" d="M203.03,677.19c-2.62,0-3.55-2.4-3.49-4.16.06-1.87,1.45-3.75,3.74-3.53,2.02.2,2.97,1.98,3.01,3.54.04,1.75-.78,4.15-3.27,4.16Z"/>
  <circle class="cls-56" cx="186.28" cy="647.49" r="3.7"/>
  <path class="cls-35" d="M161.42,566.57c-2.33.09-3.26-2.08-3.45-3.5-.28-2.04.88-4.02,3.23-4.18s3.41,1.79,3.51,3.69c.08,1.63-.79,3.89-3.28,3.99Z"/>
  <circle class="cls-66" cx="176.54" cy="625.39" r="3.68"/>
  <path class="cls-36" d="M184.46,629.47c-2.23-.11-2.95-2.31-3.05-3.71-.11-1.54.52-3.37,2.31-3.87,2.42-.67,3.93,1.02,4.3,2.71.52,2.35-.49,5.02-3.55,4.87Z"/>
  <path class="cls-21" d="M173.68,585.04c-1.97-.22-2.68-2.15-2.77-3.43-.1-1.38.41-3.2,2-3.78,2.3-.83,4.14.8,4.56,2.85s-.86,4.69-3.8,4.36Z"/>
  <circle class="cls-49" cx="184.38" cy="606.5" r="3.62"/>
  <path class="cls-29" d="M195.9,647.85c-2.31.47-3.63-1.45-3.85-3.06-.23-1.7.41-3.99,2.55-4.42s3.48,1.33,3.9,3.06c.38,1.55-.2,3.94-2.6,4.42Z"/>
  <path class="cls-29" d="M181.72,592.61c-2.54.64-4.07-1.53-4.21-3.28-.15-2.01,1.1-4.12,3.44-4.11,1.82,0,2.8,1.72,3.12,3.01.4,1.62-.2,3.84-2.35,4.38Z"/>
  <path class="cls-60" d="M169.09,577.57c-2.6.56-4.07-1.51-4.09-3.51-.01-1.61.86-3.9,3-3.91,1.89-.01,2.96,1.52,3.27,2.78.43,1.75.17,4.14-2.18,4.65Z"/>
  <path class="cls-64" d="M169.15,600c-2.38.31-3.35-1.65-3.62-3.04-.36-1.83.46-3.88,2.68-4.14,2.1-.25,3.26,1.39,3.5,3.17.19,1.38-.29,3.71-2.56,4.01Z"/>
  <circle class="cls-17" cx="178.52" cy="650.35" r="2.93"/>
  <circle class="cls-48" cx="166.4" cy="623.59" r="2.85"/>
  <path class="cls-46" d="M177.37,605.93c-1.98.28-2.8-1.42-2.91-2.56-.14-1.47.39-3.12,2.11-3.38,1.6-.24,2.63,1.08,2.85,2.3s-.22,3.39-2.04,3.64Z"/>
  <circle class="cls-69" cx="161.34" cy="592.4" r="2.6"/>
  <path class="cls-41" d="M232.63,506.98l-23.24-33.85-4.93-7.71c24.72-12.69,46.13-13.95,63.28,9.97,1.82,2.5,3.56,4.67,4.87,7.7l-7.97,46.23c-7.39-11.7-18.09-19.95-32-22.34Z"/>
  <path class="cls-31" d="M222.44,468.56c.22,2.67-.68,4.39-2.14,5.56-1.62,1.3-3.96,1.65-5.92.34-2.12-1.42-2.78-3.91-2.44-6.28.29-2.01,1.67-4.53,4.19-5.08,3.24-.71,6.04,2.12,6.31,5.45Z"/>
  <path class="cls-41" d="M234.27,622.02c-1.86-.06-2.63-2.09-2.61-3.31.03-1.59,1.01-3.58,2.96-3.53s2.66,1.97,2.66,3.52c0,1.43-.71,3.4-3,3.32Z"/>
  <path class="cls-41" d="M223.96,545.25c-1.75.1-2.65-1.64-2.82-2.66-.24-1.47.27-3.61,2.09-4.01,1.93-.42,3.29,1.33,3.5,2.97.18,1.44-.58,3.56-2.77,3.69Z"/>
  <path class="cls-41" d="M210.7,591.06c-2.31.08-3.08-2.11-3.04-3.6s.73-3.36,2.68-3.45,2.79,1.62,3.02,2.96c.26,1.56-.36,4.01-2.66,4.09Z"/>
  <polygon class="cls-41" points="332.16 471.12 281.02 476.18 285.81 446.65 336.19 446.32 332.16 471.12"/>
  <polygon class="cls-41" points="369.05 589.79 327.86 605.12 331.16 583.99 371.85 571.85 369.05 589.79"/>
  <path class="cls-4" d="M274.18,479.4l-5.2-7.92c1.09,1.2,2.73,1.59,3.5,3.94.4,1.22,2,2.38,1.69,3.99Z"/>
  <polygon class="cls-41" points="343.01 404.38 276.13 399.34 151.37 390.04 176.91 371.17 282.68 385.07 344.7 393.22 343.01 404.38"/>
  <polygon class="cls-41" points="452.46 434.39 354.14 435.59 357.46 416.27 447.94 420.37 452.46 434.39"/>
  <path class="cls-41" d="M444.53,410.31l-85.3-4.69,1.45-10.03,82.24,9.89c1.22,1.53,1.77,3.31,1.62,4.83Z"/>
  <polygon class="cls-41" points="388.54 466.08 349.05 468.83 352.24 448.64 391.89 445.23 388.54 466.08"/>
  <path class="cls-27" d="M445.32,403.12l-85.96-10.78c-1.7-.21-1.89,2.73-2.03,3.74l-.96,7.4c-.23,1.78-.56,3.18-.08,5.01l-1.26-.87c-.33-.23-.5-1.27-.25-1.82,2.71-5.91-.59-10.41,3.95-14.74-2.04-3.7-1.81-7.66-.25-11.8.61-1.61-.69-4.93,1.29-6.25,2.55-1.68,5.87,0,8.45.46l7.12,1.24,7.57,1.43c2.22.42,4.39.03,6.5,1.37l4.19.16c2.04,1.25,8.22,1.83,12.81,2.77l6.35,1.3,7.02,1.27c6.93,1.26,13.93,2.49,21.06,3.83,1.26,3.77,4.22,7.65,4.34,11.64.06,1.97-1.36,2.59.13,4.64Z"/>
  <path class="cls-41" d="M439.7,395.53l-78.1-9.47,1.28-9.54,74.77,14.06c1.35.92,1.95,3.23,2.06,4.95Z"/>
  <path class="cls-41" d="M337.48,437.92l-50.45.11c.63-3.93,1.59-6.98,1.31-10.97l-181.27-9.08,22.37-16.64,135.75,7.81,76.11,4.24-3.83,24.53Z"/>
  <polygon class="cls-41" points="377.97 531.26 338.21 537.9 341.8 517.02 381.14 511.52 377.97 531.26"/>
</svg>